<?xml version="1.0" standalone="no"?>
<!DOCTYPE svg PUBLIC "-//W3C//DTD SVG 20010904//EN"
 "http://www.w3.org/TR/2001/REC-SVG-20010904/DTD/svg10.dtd">
<svg version="1.0" xmlns="http://www.w3.org/2000/svg"
 width="250.000000pt" height="250.000000pt" viewBox="0 0 250.000000 250.000000"
 preserveAspectRatio="xMidYMid meet">
<metadata>
Created by potrace 1.14, written by Peter Selinger 2001-2017
</metadata>
<g transform="translate(0.000000,250.000000) scale(0.100000,-0.100000)"
fill="#000000" stroke="none">
<path d="M633 2404 c-70 -35 -67 -17 -68 -542 l0 -472 136 -3 136 -2 0 460 c0
312 -3 472 -11 495 -22 69 -118 101 -193 64z"/>
<path d="M242 2033 c-64 -31 -66 -42 -67 -401 0 -178 2 -325 6 -328 4 -2 31 5
62 15 30 11 89 27 131 36 l76 17 0 287 c0 252 -2 290 -18 321 -31 63 -120 88
-190 53z"/>
<path d="M1023 2034 c-67 -33 -67 -36 -68 -368 l0 -299 85 -23 c47 -12 109
-32 138 -43 l52 -21 -2 343 c-3 313 -5 345 -21 371 -34 52 -121 71 -184 40z"/>
<path d="M1230 939 c0 -275 3 -336 15 -363 43 -90 195 -92 241 -4 14 27 17 73
17 320 0 161 -4 292 -9 297 -5 4 -36 14 -68 21 -33 7 -88 23 -123 36 -35 13
-66 24 -68 24 -3 0 -5 -149 -5 -331z"/>
<path d="M2185 1229 c-44 -15 -101 -30 -127 -34 l-48 -7 0 -294 c0 -244 3
-300 15 -324 30 -57 115 -80 183 -50 71 32 73 40 73 378 0 371 1 362 -8 360
-5 0 -44 -13 -88 -29z"/>
<path d="M1620 705 c0 -528 -1 -522 71 -554 47 -22 108 -19 146 6 52 34 53 39
54 495 0 233 0 444 0 470 l-1 47 -135 0 -135 1 0 -465z"/>
</g>
</svg>
